{
    "asset" : {
        "generator" : "Khronos glTF Blender I/O v1.6.16",
        "version" : "2.0"
    },
    "scene" : 0,
    "scenes" : [
        {
            "name" : "Scene",
            "nodes" : [
                0,
                1,
                2
            ]
        }
    ],
    "nodes" : [
        {
            "name" : "Light",
            "rotation" : [
                0.6089144349098206,
                0.5166402459144592,
                0.5153108835220337,
                0.31106412410736084
            ],
            "scale" : [
                0.24145735800266266,
                0.24145729839801788,
                0.24145735800266266
            ],
            "translation" : [
                0.23058827221393585,
                -1.6288824081420898,
                1.3398466110229492
            ]
        },
        {
            "mesh" : 0,
            "name" : "nevermore_model_lod_LOD0",
            "scale" : [
                0.017075570300221443,
                0.017075570300221443,
                0.017075570300221443
            ],
            "translation" : [
                0.024655168876051903,
                -1.9673584699630737,
                0.5716250538825989
            ]
        },
        {
            "mesh" : 1,
            "name" : "wings_model",
            "scale" : [
                0.017075570300221443,
                0.017075570300221443,
                0.017075570300221443
            ],
            "translation" : [
                0.024655168876051903,
                -1.9673584699630737,
                0.5716250538825989
            ]
        }
    ],
    "materials" : [
        {
            "name" : "Material #35",
            "pbrMetallicRoughness" : {
                "baseColorTexture" : {
                    "index" : 0
                },
                "metallicFactor" : 0,
                "roughnessFactor" : 0.9230769276618958
            }
        },
        {
            "name" : "Material #46",
            "pbrMetallicRoughness" : {
                "baseColorTexture" : {
                    "index" : 1
                },
                "metallicFactor" : 0,
                "roughnessFactor" : 0.9230769276618958
            }
        }
    ],
    "meshes" : [
        {
            "name" : "nevermore_model_lod_LOD0",
            "primitives" : [
                {
                    "attributes" : {
                        "POSITION" : 0,
                        "NORMAL" : 1,
                        "TEXCOORD_0" : 2
                    },
                    "indices" : 3,
                    "material" : 0
                }
            ]
        },
        {
            "name" : "wings_model",
            "primitives" : [
                {
                    "attributes" : {
                        "POSITION" : 4,
                        "NORMAL" : 5,
                        "TEXCOORD_0" : 6
                    },
                    "indices" : 7,
                    "material" : 1
                }
            ]
        }
    ],
    "textures" : [
        {
            "sampler" : 0,
            "source" : 0
        },
        {
            "sampler" : 0,
            "source" : 0
        }
    ],
    "images" : [
        {
            "bufferView" : 4,
            "mimeType" : "image/png",
            "name" : "nevermore_color"
        }
    ],
    "accessors" : [
        {
            "bufferView" : 0,
            "componentType" : 5126,
            "count" : 2183,
            "max" : [
                87.97936248779297,
                233.97372436523438,
                28.479206085205078
            ],
            "min" : [
                -86.86508178710938,
                24.947574615478516,
                -62.848472595214844
            ],
            "type" : "VEC3"
        },
        {
            "bufferView" : 1,
            "componentType" : 5126,
            "count" : 2183,
            "type" : "VEC3"
        },
        {
            "bufferView" : 2,
            "componentType" : 5126,
            "count" : 2183,
            "type" : "VEC2"
        },
        {
            "bufferView" : 3,
            "componentType" : 5123,
            "count" : 9654,
            "type" : "SCALAR"
        },
        {
            "bufferView" : 5,
            "componentType" : 5126,
            "count" : 1083,
            "max" : [
                282.66607666015625,
                388.50054931640625,
                -33.510440826416016
            ],
            "min" : [
                -268.44622802734375,
                132.3114013671875,
                -156.563720703125
            ],
            "type" : "VEC3"
        },
        {
            "bufferView" : 6,
            "componentType" : 5126,
            "count" : 1083,
            "type" : "VEC3"
        },
        {
            "bufferView" : 7,
            "componentType" : 5126,
            "count" : 1083,
            "type" : "VEC2"
        },
        {
            "bufferView" : 8,
            "componentType" : 5123,
            "count" : 5028,
            "type" : "SCALAR"
        }
    ],
    "bufferViews" : [
        {
            "buffer" : 0,
            "byteLength" : 26196,
            "byteOffset" : 0
        },
        {
            "buffer" : 0,
            "byteLength" : 26196,
            "byteOffset" : 26196
        },
        {
            "buffer" : 0,
            "byteLength" : 17464,
            "byteOffset" : 52392
        },
        {
            "buffer" : 0,
            "byteLength" : 19308,
            "byteOffset" : 69856
        },
        {
            "buffer" : 0,
            "byteLength" : 71964,
            "byteOffset" : 89164
        },
        {
            "buffer" : 0,
            "byteLength" : 12996,
            "byteOffset" : 161128
        },
        {
            "buffer" : 0,
            "byteLength" : 12996,
            "byteOffset" : 174124
        },
        {
            "buffer" : 0,
            "byteLength" : 8664,
            "byteOffset" : 187120
        },
        {
            "buffer" : 0,
            "byteLength" : 10056,
            "byteOffset" : 195784
        }
    ],
    "samplers" : [
        {
            "magFilter" : 9729,
            "minFilter" : 9987
        }
    ],
    "buffers" : [
        {
            "byteLength" : 205840,
            "uri" : "data:application/octet-stream;base64,"
        }
    ]
}
